<svg width="28" height="31" viewBox="0 0 28 31" fill="none" xmlns="http://www.w3.org/2000/svg">
<path d="M16.8766 5.00293C16.5439 5.00293 16.2738 5.27295 16.2738 5.60566C16.2738 5.93837 16.5439 6.2084 16.8766 6.2084C17.2093 6.2084 17.4793 5.93837 17.4793 5.60566C17.4793 5.27295 17.2093 5.00293 16.8766 5.00293Z" fill="white"/>
<path d="M10.8492 5.00293C10.5165 5.00293 10.2465 5.27295 10.2465 5.60566C10.2465 5.93837 10.5165 6.2084 10.8492 6.2084C11.1819 6.2084 11.452 5.93837 11.452 5.60566C11.452 5.27295 11.1819 5.00293 10.8492 5.00293Z" fill="white"/>
<path d="M26.9496 18.0146C27.467 17.2382 27.7258 16.2694 27.7258 15.43C27.7258 14.1645 27.1636 12.9887 26.1989 12.1914C26.4124 11.6813 26.5203 11.1507 26.5203 10.6081C26.5203 8.92921 25.5405 7.36523 24.0838 6.6349C24.3048 4.80174 23.1103 3.12144 21.3401 2.69284C20.6473 1.09119 19.1052 0 17.4793 0C15.9658 0 14.6084 0.882765 13.8629 2.17081C13.1173 0.882765 11.7599 0 10.2465 0C8.62049 0 7.07839 1.09119 6.38567 2.6929C4.60489 3.12421 3.4216 4.81289 3.64202 6.6349C2.18533 7.36517 1.20547 8.92921 1.20547 10.6081C1.20547 11.1507 1.31336 11.6813 1.52685 12.1914C0.56217 12.9888 0 14.1645 0 15.43C0 16.2738 0.260984 17.2413 0.776141 18.0146C0.272737 18.7252 0 19.5674 0 20.4327C0 21.5547 0.454944 22.6236 1.25965 23.4173C0.845938 25.9182 2.84039 28.4491 5.42461 28.4491C5.44329 28.4491 5.46168 28.4488 5.4797 28.4482C6.33649 29.9262 7.92686 30.86 9.64375 30.86C11.4331 30.86 13.0321 29.7859 13.8629 28.2385C14.6937 29.7859 16.2926 30.86 18.082 30.86C19.7989 30.86 21.3893 29.9262 22.2461 28.4482C22.2642 28.4488 22.2825 28.4491 22.3012 28.4491C24.5882 28.4491 26.5203 26.4341 26.5203 24.0491C26.5203 23.846 26.5025 23.6372 26.4661 23.4173C27.2708 22.6236 27.7258 21.5548 27.7258 20.4327C27.7258 19.5674 27.453 18.7252 26.9496 18.0146ZM13.2602 9.12425C12.9053 8.91842 12.4937 8.79992 12.0547 8.79992C11.7218 8.79992 11.452 9.06977 11.452 9.40266C11.452 9.73555 11.7218 10.0054 12.0547 10.0054C12.7194 10.0054 13.2602 10.5462 13.2602 11.2109V22.673C12.3759 21.67 11.0829 21.0354 9.64375 21.0354C9.31086 21.0354 9.04102 21.3053 9.04102 21.6382C9.04102 21.9711 9.31086 22.2409 9.64375 22.2409C11.6378 22.2409 13.2602 23.8632 13.2602 25.8573C13.2602 27.9156 11.604 29.6545 9.64375 29.6545C8.2483 29.6545 6.96369 28.8293 6.37096 27.5522C6.26169 27.3168 6.0142 27.178 5.75617 27.2071C5.71356 27.212 5.67119 27.2176 5.62882 27.2234C3.91343 27.458 1.98167 25.5156 2.5046 23.3426C2.55831 23.1194 2.48055 22.8852 2.30413 22.7383C1.60593 22.1574 1.20547 21.317 1.20547 20.4327C1.20547 19.886 1.36007 19.3509 1.64776 18.8817C2.37067 19.4742 3.26989 19.83 4.21914 19.83C4.55203 19.83 4.82187 19.5601 4.82187 19.2272C4.82187 18.8943 4.55203 18.6245 4.21914 18.6245C2.58338 18.6245 1.20547 17.1315 1.20547 15.43C1.20547 14.3978 1.7316 13.4483 2.61297 12.89C2.88451 12.7179 2.97329 12.3631 2.81471 12.0835C2.54679 11.611 2.41094 11.1146 2.41094 10.6081C2.41094 8.98135 3.73707 7.41363 5.42461 7.41363C7.03005 7.41363 8.43828 8.90643 8.43828 10.6081C8.43828 10.941 8.70813 11.2109 9.04102 11.2109C9.37391 11.2109 9.64375 10.941 9.64375 10.6081C9.64375 8.22311 7.71162 6.20816 5.42461 6.20816C5.22281 6.20816 5.0221 6.2245 4.82338 6.25542C4.82308 6.23957 4.82187 6.22414 4.82187 6.20816C4.82187 4.86304 5.91385 3.79723 7.23281 3.79723C7.87665 3.79723 8.48228 4.04802 8.93807 4.50333C9.17356 4.73858 9.55515 4.73834 9.79046 4.50291C10.0257 4.26736 10.0255 3.88577 9.79003 3.65052C9.24016 3.10125 8.54466 2.75094 7.79094 2.63485C8.3225 1.84581 9.20641 1.20547 10.2465 1.20547C11.8519 1.20547 13.2602 2.6982 13.2602 4.39996V9.12425ZM23.5066 19.83C24.4559 19.83 25.3552 19.4742 26.0781 18.8819C26.3657 19.351 26.5203 19.886 26.5203 20.4327C26.5203 21.317 26.1199 22.1574 25.4217 22.7383C25.2452 22.8852 25.1675 23.1194 25.2212 23.3426C25.2851 23.608 25.3148 23.8325 25.3148 24.049C25.3148 25.9199 23.6227 27.4319 22.097 27.2234C22.0547 27.2176 22.0122 27.2119 21.9696 27.2071C21.7112 27.1778 21.464 27.3168 21.3549 27.5522C20.7621 28.8293 19.4774 29.6545 18.082 29.6545C16.1218 29.6545 14.4656 27.9156 14.4656 25.8573C14.4656 23.8632 16.0879 22.2409 18.082 22.2409C18.4149 22.2409 18.6848 21.9711 18.6848 21.6382C18.6848 21.3053 18.4149 21.0354 18.082 21.0354C16.6429 21.0354 15.3499 21.67 14.4656 22.673V11.2109C14.4656 10.5462 15.0064 10.0054 15.6711 10.0054C16.0039 10.0054 16.2738 9.73555 16.2738 9.40266C16.2738 9.06977 16.0039 8.79992 15.6711 8.79992C15.2321 8.79992 14.8205 8.91842 14.4656 9.12425V4.39996C14.4656 2.6982 15.8739 1.20547 17.4793 1.20547C18.5194 1.20547 19.4032 1.84581 19.9348 2.63479C19.1811 2.75088 18.4857 3.10119 17.9357 3.65046C17.7002 3.88571 17.7 4.2673 17.9352 4.50285C18.1705 4.7384 18.5522 4.73858 18.7876 4.50333C19.2436 4.04802 19.8491 3.79723 20.493 3.79723C21.8186 3.79723 22.9039 4.86931 22.9039 6.20816C22.9039 6.22408 22.9027 6.23957 22.9024 6.25542C22.7037 6.2245 22.503 6.20816 22.3012 6.20816C20.0142 6.20816 18.082 8.22311 18.082 10.6081C18.082 10.941 18.3519 11.2109 18.6848 11.2109C19.0176 11.2109 19.2875 10.941 19.2875 10.6081C19.2875 8.90643 20.6957 7.41363 22.3012 7.41363C23.9877 7.41363 25.3148 8.98056 25.3148 10.6081C25.3148 11.1146 25.179 11.611 24.9111 12.0835C24.7526 12.3631 24.8413 12.7179 25.1129 12.89C25.9942 13.4483 26.5203 14.3978 26.5203 15.43C26.5203 17.1376 25.1376 18.6245 23.5066 18.6245C23.1738 18.6245 22.9039 18.8943 22.9039 19.2272C22.9039 19.5601 23.1738 19.83 23.5066 19.83Z" fill="white"/>
<path d="M11.9012 12.9017C11.6792 12.6536 11.2982 12.6324 11.0501 12.8543C9.11726 14.5833 6.02734 13.2015 6.02734 10.6081C6.02734 10.2752 5.75749 10.0054 5.4246 10.0054C5.09171 10.0054 4.82187 10.2752 4.82187 10.6081C4.82187 12.7005 6.35324 14.4412 8.35389 14.7704C8.12184 15.5014 7.43689 16.0327 6.63007 16.0327C6.29718 16.0327 6.02734 16.3026 6.02734 16.6354C6.02734 16.9683 6.29718 17.2382 6.63007 17.2382C8.09815 17.2382 9.32369 16.1828 9.58962 14.791C10.4278 14.6813 11.2168 14.3226 11.8538 13.7528C12.1019 13.5308 12.1231 13.1498 11.9012 12.9017Z" fill="white"/>
<path d="M5.4246 23.4463C5.09171 23.4463 4.82187 23.7161 4.82187 24.049C4.82187 24.3819 5.09171 24.6518 5.4246 24.6518C7.03005 24.6518 8.43828 26.1445 8.43828 27.8462C8.43828 28.1791 8.70812 28.449 9.04101 28.449C9.3739 28.449 9.64374 28.1791 9.64374 27.8462C9.64374 25.4612 7.71162 23.4463 5.4246 23.4463Z" fill="white"/>
<path d="M10.2465 18.6245C8.20406 18.6245 6.45047 19.7447 5.52708 21.3735C5.36295 21.6631 5.46464 22.0309 5.75419 22.1951C6.0438 22.3592 6.41159 22.2576 6.57578 21.9679C7.29514 20.6988 8.66009 19.83 10.2465 19.83C10.5794 19.83 10.8492 19.5601 10.8492 19.2272C10.8492 18.8944 10.5794 18.6245 10.2465 18.6245Z" fill="white"/>
<path d="M21.0957 16.0327C20.2889 16.0327 19.6039 15.5014 19.3719 14.7704C21.3725 14.4412 22.9039 12.7005 22.9039 10.6081C22.9039 10.2752 22.634 10.0054 22.3012 10.0054C21.9683 10.0054 21.6984 10.2752 21.6984 10.6081C21.6984 12.2698 20.3465 13.6218 18.6848 13.6218C17.9424 13.6218 17.229 13.3492 16.6757 12.8543C16.4276 12.6324 16.0465 12.6535 15.8246 12.9017C15.6026 13.1498 15.6239 13.5308 15.872 13.7528C16.509 14.3226 17.298 14.6813 18.1362 14.791C18.4021 16.1828 19.6276 17.2382 21.0957 17.2382C21.4285 17.2382 21.6984 16.9683 21.6984 16.6354C21.6984 16.3026 21.4285 16.0327 21.0957 16.0327Z" fill="white"/>
<path d="M22.3012 23.4463C20.0142 23.4463 18.082 25.4612 18.082 27.8462C18.082 28.1791 18.3519 28.449 18.6848 28.449C19.0176 28.449 19.2875 28.1791 19.2875 27.8462C19.2875 26.1445 20.6957 24.6518 22.3012 24.6518C22.634 24.6518 22.9039 24.3819 22.9039 24.049C22.9039 23.7161 22.634 23.4463 22.3012 23.4463Z" fill="white"/>
<path d="M22.1987 21.3735C21.2776 19.7486 19.5264 18.6245 17.4793 18.6245C17.1465 18.6245 16.8766 18.8944 16.8766 19.2272C16.8766 19.5601 17.1465 19.83 17.4793 19.83C19.0645 19.83 20.4305 20.6986 21.1499 21.9679C21.3142 22.2579 21.6823 22.3591 21.9715 22.1951C22.2611 22.031 22.3628 21.6631 22.1987 21.3735Z" fill="white"/>
</svg>
